<svg width="30" height="30" viewBox="0 0 30 30" fill="none" xmlns="http://www.w3.org/2000/svg">
<path fill-rule="evenodd" clip-rule="evenodd" d="M19 6H11C8.23858 6 6 8.23858 6 11V19C6 21.7614 8.23858 24 11 24H19C21.7614 24 24 21.7614 24 19V11C24 8.23858 21.7614 6 19 6ZM22.25 19C22.2445 20.7926 20.7926 22.2445 19 22.25H11C9.20735 22.2445 7.75549 20.7926 7.75 19V11C7.75549 9.20735 9.20735 7.75549 11 7.75H19C20.7926 7.75549 22.2445 9.20735 22.25 11V19ZM19.75 11.25C20.3023 11.25 20.75 10.8023 20.75 10.25C20.75 9.69772 20.3023 9.25 19.75 9.25C19.1977 9.25 18.75 9.69772 18.75 10.25C18.75 10.8023 19.1977 11.25 19.75 11.25ZM15 10.5C12.5147 10.5 10.5 12.5147 10.5 15C10.5 17.4853 12.5147 19.5 15 19.5C17.4853 19.5 19.5 17.4853 19.5 15C19.5027 13.8057 19.0294 12.6596 18.1849 11.8151C17.3404 10.9706 16.1943 10.4973 15 10.5ZM12.25 15C12.25 16.5188 13.4812 17.75 15 17.75C16.5188 17.75 17.75 16.5188 17.75 15C17.75 13.4812 16.5188 12.25 15 12.25C13.4812 12.25 12.25 13.4812 12.25 15Z" fill="currentColor"/>
</svg>
